REM DIRINDEX 1\2,1\3,1\4
REM DIRNAME folder01,folder02,folder03,folder04
TITLE ""
FILE "061 061_TOEFL_3900.mp3" MP3
  TRACK 01 AUDIO
    TITLE "2:cjc151_2631"
    INDEX 01 00:00:00
  TRACK 02 AUDIO
    TITLE "0:"
    INDEX 01 00:02:34
  TRACK 03 AUDIO
    TITLE "3:cjc151_2632"
    INDEX 01 00:04:11
  TRACK 04 AUDIO
    TITLE "0:"
    INDEX 01 00:07:17
  TRACK 05 AUDIO
    TITLE "2:cjc151_2633"
    INDEX 01 00:08:72
  TRACK 06 AUDIO
    TITLE "0:"
    INDEX 01 00:10:10
  TRACK 07 AUDIO
    TITLE "3:cjc151_2634"
    INDEX 01 00:11:64
  TRACK 08 AUDIO
    TITLE "0:"
    INDEX 01 00:16:10
  TRACK 09 AUDIO
    TITLE "2:cjc151_2635"
    INDEX 01 00:17:63
  TRACK 10 AUDIO
    TITLE "0:"
    INDEX 01 00:18:68
  TRACK 11 AUDIO
    TITLE "3:cjc151_2636"
    INDEX 01 00:20:45
  TRACK 12 AUDIO
    TITLE "0:"
    INDEX 01 00:24:43
  TRACK 13 AUDIO
    TITLE "2:cjc151_2637"
    INDEX 01 00:26:24
  TRACK 14 AUDIO
    TITLE "0:"
    INDEX 01 00:27:28
  TRACK 15 AUDIO
    TITLE "3:cjc151_2638"
    INDEX 01 00:29:07
  TRACK 16 AUDIO
    TITLE "0:"
    INDEX 01 00:32:43
  TRACK 17 AUDIO
    TITLE "2:cjc151_2639"
    INDEX 01 00:34:22
  TRACK 18 AUDIO
    TITLE "0:"
    INDEX 01 00:35:35
  TRACK 19 AUDIO
    TITLE "3:cjc151_2640"
    INDEX 01 00:37:08
  TRACK 20 AUDIO
    TITLE "0:"
    INDEX 01 00:40:36
  TRACK 21 AUDIO
    TITLE "2:cjc151_2641"
    INDEX 01 00:42:18
  TRACK 22 AUDIO
    TITLE "0:"
    INDEX 01 00:43:21
  TRACK 23 AUDIO
    TITLE "3:cjc151_2642"
    INDEX 01 00:45:00
  TRACK 24 AUDIO
    TITLE "0:"
    INDEX 01 00:49:27
  TRACK 25 AUDIO
    TITLE "2:cjc151_2643"
    INDEX 01 00:51:07
  TRACK 26 AUDIO
    TITLE "0:"
    INDEX 01 00:52:14
  TRACK 27 AUDIO
    TITLE "3:cjc151_2644"
    INDEX 01 00:53:64
  TRACK 28 AUDIO
    TITLE "0:"
    INDEX 01 00:57:46
  TRACK 29 AUDIO
    TITLE "2:cjc151_2645"
    INDEX 01 00:59:26
  TRACK 30 AUDIO
    TITLE "0:"
    INDEX 01 01:00:35
  TRACK 31 AUDIO
    TITLE "3:cjc151_2646"
    INDEX 01 01:02:14
  TRACK 32 AUDIO
    TITLE "0:"
    INDEX 01 01:06:14
  TRACK 33 AUDIO
    TITLE "2:cjc151_2647"
    INDEX 01 01:07:66
  TRACK 34 AUDIO
    TITLE "0:"
    INDEX 01 01:08:56
  TRACK 35 AUDIO
    TITLE "3:cjc151_2648"
    INDEX 01 01:10:35
  TRACK 36 AUDIO
    TITLE "0:"
    INDEX 01 01:14:08
  TRACK 37 AUDIO
    TITLE "2:cjc151_2649"
    INDEX 01 01:15:62
  TRACK 38 AUDIO
    TITLE "0:"
    INDEX 01 01:17:06
  TRACK 39 AUDIO
    TITLE "3:cjc151_2650"
    INDEX 01 01:18:54
  TRACK 40 AUDIO
    TITLE "0:"
    INDEX 01 01:22:74
  TRACK 41 AUDIO
    TITLE "2:cjc151_2651"
    INDEX 01 01:24:53
  TRACK 42 AUDIO
    TITLE "0:"
    INDEX 01 01:25:45
  TRACK 43 AUDIO
    TITLE "3:cjc151_2652"
    INDEX 01 01:27:22
  TRACK 44 AUDIO
    TITLE "0:"
    INDEX 01 01:30:73
  TRACK 45 AUDIO
    TITLE "2:cjc151_2653"
    INDEX 01 01:32:51
  TRACK 46 AUDIO
    TITLE "0:"
    INDEX 01 01:33:62
  TRACK 47 AUDIO
    TITLE "3:cjc151_2654"
    INDEX 01 01:35:43
  TRACK 48 AUDIO
    TITLE "0:"
    INDEX 01 01:39:27
  TRACK 49 AUDIO
    TITLE "2:cjc151_2655"
    INDEX 01 01:41:05
  TRACK 50 AUDIO
    TITLE "0:"
    INDEX 01 01:42:02
  TRACK 51 AUDIO
    TITLE "3:cjc151_2656"
    INDEX 01 01:43:54
  TRACK 52 AUDIO
    TITLE "0:"
    INDEX 01 01:48:11
  TRACK 53 AUDIO
    TITLE "2:cjc151_2657"
    INDEX 01 01:49:65
  TRACK 54 AUDIO
    TITLE "0:"
    INDEX 01 01:50:60
  TRACK 55 AUDIO
    TITLE "3:cjc151_2658"
    INDEX 01 01:52:48
  TRACK 56 AUDIO
    TITLE "0:"
    INDEX 01 01:56:22
  TRACK 57 AUDIO
    TITLE "2:cjc151_2659"
    INDEX 01 01:58:03
  TRACK 58 AUDIO
    TITLE "0:"
    INDEX 01 01:59:26
  TRACK 59 AUDIO
    TITLE "3:cjc151_2660"
    INDEX 01 02:01:01
  TRACK 60 AUDIO
    TITLE "0:"
    INDEX 01 02:04:31
  TRACK 61 AUDIO
    TITLE "2:cjc151_2661"
    INDEX 01 02:06:10
  TRACK 62 AUDIO
    TITLE "0:"
    INDEX 01 02:07:29
  TRACK 63 AUDIO
    TITLE "3:cjc151_2662"
    INDEX 01 02:09:09
  TRACK 64 AUDIO
    TITLE "0:"
    INDEX 01 02:12:46
  TRACK 65 AUDIO
    TITLE "2:cjc151_2663"
    INDEX 01 02:14:28
  TRACK 66 AUDIO
    TITLE "0:"
    INDEX 01 02:15:37
  TRACK 67 AUDIO
    TITLE "3:cjc151_2664"
    INDEX 01 02:17:18
  TRACK 68 AUDIO
    TITLE "0:"
    INDEX 01 02:20:73
  TRACK 69 AUDIO
    TITLE "2:cjc151_2665"
    INDEX 01 02:22:53
  TRACK 70 AUDIO
    TITLE "0:"
    INDEX 01 02:23:62
  TRACK 71 AUDIO
    TITLE "3:cjc151_2666"
    INDEX 01 02:25:33
  TRACK 72 AUDIO
    TITLE "0:"
    INDEX 01 02:29:35
  TRACK 73 AUDIO
    TITLE "2:cjc151_2667"
    INDEX 01 02:31:20
  TRACK 74 AUDIO
    TITLE "0:"
    INDEX 01 02:32:10
  TRACK 75 AUDIO
    TITLE "3:cjc151_2668"
    INDEX 01 02:33:70
  TRACK 76 AUDIO
    TITLE "0:"
    INDEX 01 02:37:03
  TRACK 77 AUDIO
    TITLE "2:cjc151_2669"
    INDEX 01 02:38:57
  TRACK 78 AUDIO
    TITLE "0:"
    INDEX 01 02:39:67
  TRACK 79 AUDIO
    TITLE "3:cjc151_2670"
    INDEX 01 02:41:42
  TRACK 80 AUDIO
    TITLE "0:"
    INDEX 01 02:44:70
  TRACK 81 AUDIO
    TITLE "2:cjc151_2671"
    INDEX 01 02:46:47
  TRACK 82 AUDIO
    TITLE "0:"
    INDEX 01 02:47:45
  TRACK 83 AUDIO
    TITLE "3:cjc151_2672"
    INDEX 01 02:49:30
  TRACK 84 AUDIO
    TITLE "0:"
    INDEX 01 02:53:30
  TRACK 85 AUDIO
    TITLE "2:cjc151_2673"
    INDEX 01 02:55:05
  TRACK 86 AUDIO
    TITLE "0:"
    INDEX 01 02:57:20
  TRACK 87 AUDIO
    TITLE "3:cjc151_2674"
    INDEX 01 02:59:05
  TRACK 88 AUDIO
    TITLE "0:"
    INDEX 01 03:02:70
